<?xml version="1.0" encoding="utf-8"?>
<!-- Generator: Adobe Illustrator 25.2.1, SVG Export Plug-In . SVG Version: 6.00 Build 0)  -->
<svg version="1.1" id="Layer_1" xmlns="http://www.w3.org/2000/svg" xmlns:xlink="http://www.w3.org/1999/xlink" x="0px" y="0px"
	 viewBox="0 0 200 200" style="enable-background:new 0 0 200 200;" xml:space="preserve">
<style type="text/css">
	.st0{fill:#FFFFFF;}
</style>
<g transform="translate(0.000000,200.000000) scale(0.100000,-0.100000)">
	<path class="st0" d="M845,1876c-295-72-508-356-493-658c8-157,57-266,184-408c68-77,124-175,124-220c0-73,93-188,170-211
		c20-6,100-9,192-7c155,3,157,3,199,33c67,48,96,92,118,178c23,92,53,146,128,230c124,138,173,249,181,405c15,301-196,581-493,657
		C1084,1893,917,1894,845,1876z M1115,1815c116-24,221-83,302-168c114-120,163-241,163-403c0-157-42-255-170-399
		c-77-86-120-165-140-260c-15-72-63-127-125-144c-52-14-238-14-290,0c-22,6-56,28-76,48c-29,29-39,50-53,112c-19,88-62,165-136,246
		c-118,130-160,221-168,366c-5,113,7,182,48,272C583,1734,850,1871,1115,1815z"/>
	<path class="st0" d="M889,1741l-29-29v-227c0-148,4-234,11-248c6-12,46-58,89-102c115-119,114-117,118-333c4-204-1-233-50-253
		c-26-10-35-10-57,2c-45,26-51,50-51,242c0,149-2,179-15,183c-8,4-22,1-30-6c-12-10-15-47-15-211c0-132,4-207,12-224
		c18-39,57-55,136-55c63,0,73,3,101,29l31,29v242c0,189-3,247-14,268c-8,15-47,59-86,97c-114,111-115,115-115,343
		c0,192,0,194,24,213c30,24,72,24,102,0c23-19,24-25,29-203l5-183h25h25l3,198l2,198l-29,30c-28,27-34,29-111,29S917,1768,889,1741z
		"/>
	<path class="st0" d="M705,1696c-104-70-193-190-224-301c-9-32-8-42,4-55c22-21,46-3,63,48c7,23,18,42,23,42c16,0,20-43,17-199
		c-3-170-14-198-43-111c-19,57-38,71-62,47c-14-14-15-22-4-59c23-74,59-136,123-205c33-38,76-91,94-119c32-50,74-157,74-189
		c0-22,28-75,40-75c6,0,10,211,10,583c0,511-2,585-16,605C783,1738,763,1736,705,1696z M732,1583c17-15,18-39,18-329
		c0-271-2-315-16-328c-20-21-43-20-66,1c-17,15-18,38-18,326c0,275,2,313,17,329C687,1604,708,1605,732,1583z"/>
	<path class="st0" d="M1201,1717c-12-15-21-1197-9-1197s30,40,44,99c9,38,13,132,14,298c0,206,2,244,16,257c11,12,36,16,94,16
		c68,0,81-3,90-19c16-30,12-51-20-114c-32-64-30-87,6-87c19,0,29,11,50,53c118,231,32,529-193,674C1236,1733,1218,1737,1201,1717z
		 M1342,1573c49-52,83-110,108-182c25-75,25-86,0-111c-16-16-33-20-90-20c-107,0-110,5-110,183c0,146,5,167,40,167
		C1299,1610,1322,1593,1342,1573z"/>
	<path class="st0" d="M794,336c-3-8-4-23-2-33c3-17,18-18,188-18h185v30v30l-183,3C829,350,799,348,794,336z"/>
	<path class="st0" d="M854,246c-3-8-4-23-2-33c3-16,16-18,128-18h125v30v30l-123,3C882,260,859,258,854,246z"/>
</g>
</svg>
